PathFileType	4	(X/Y/Z)	OpenSim_Sub09_CSStiffKnee_Accel.trc
DataRate	CameraRate	NumFrames	NumMarkers	Units	OrigDataRate	OrigDataStartFrame	OrigNumFrames
100	100	27	8	m	100	6237	7127
Frame#	Time	torso_imu_offset_imu	pelvis_imu_offset_imu	tibia_r_imu_offset_imu	femur_r_imu_offset_imu	tibia_l_imu_offset_imu	femur_l_imu_offset_imu	toes_r_imu_offset_imu	toes_l_imu_offset_imu
				X1	Y1	Z1	X2	Y2	Z2	X3	Y3	Z3	X4	Y4	Z4	X5	Y5	Z5	X6	Y6	Z6	X7	Y7	Z7	X8		Y8	Z8	

6237	62.36000000	8.49406434	1.94204320	5.93282395	9.25880679	-0.95262201	4.23473927	7.52495958	3.93358670	0.58685247	9.79733697	1.34674874	3.19874540	9.94296362	-1.91842176	0.44777291	9.87671016	-0.77394766	-2.04692749	1.72515708	-3.79743040	11.51418035	5.48398248	2.82674057	10.63439433
6238	62.37000000	8.33982228	1.81816574	5.98533513	8.61934262	-1.37768495	4.34501195	8.40938526	3.48311867	0.59194585	9.19550241	1.02077499	3.60494949	9.82262614	-2.16128024	0.77125037	10.20198943	-0.70119316	-1.88586889	3.22318698	-3.75365731	11.93962056	5.08429443	2.29972523	10.93832025
6239	62.38000000	8.23779775	1.83161313	5.97868545	8.16284436	-1.90251226	4.34649761	9.14073311	2.97465742	0.80387517	8.56663805	0.56896717	3.98121281	9.78688252	-2.15804814	1.07553772	10.09346338	-0.20799217	-1.58356202	4.80200632	-3.41578434	12.42456138	5.24954462	3.34570732	10.88856308
6240	62.39000000	8.15375521	1.88215553	6.06798212	8.06931932	-2.33617081	4.40215435	9.59530530	2.50595878	1.03649177	8.16813921	0.00100420	4.22560214	9.96081654	-1.85378117	0.99719337	9.91064050	0.13517522	-1.37924230	6.04622054	-2.69885410	12.79586181	5.38470954	2.39860627	10.72272918
6241	62.40000000	8.11240609	1.94769134	6.08591825	8.10862406	-2.64374322	4.33289318	9.93690235	2.09538767	1.13090926	8.00402375	-0.55695863	4.26010772	10.04074799	-1.92846923	0.59773781	9.92947335	0.41167278	-1.42617331	6.61932459	-2.02765678	12.91335629	5.69735152	2.97739251	10.38647477
6242	62.41000000	8.11398727	1.92086312	6.13417411	8.25585467	-2.88411143	4.25520853	10.20916011	1.93047037	1.24788230	8.00661869	-1.04847721	4.19662350	9.97878657	-2.29564486	-0.05022450	9.68490007	0.65400108	-1.52017780	7.01402363	-1.86217369	12.83289970	5.55602059	2.74867010	10.48062840
6243	62.42000000	8.14485290	1.94441333	6.23254796	8.45042100	-2.97628904	4.14996730	10.51102925	1.93139372	1.42001657	8.10230990	-1.55748717	4.08248532	9.81638342	-2.68879602	-0.10902768	9.35052837	0.81170234	-1.69121044	7.34150132	-2.03971060	12.63655128	5.65772205	2.66998532	10.40294497
6244	62.43000000	8.17272420	2.02458083	6.23613052	8.60108108	-3.00428231	3.98645598	10.85408938	2.02156719	1.57514374	8.16125749	-2.00813071	3.90024944	9.34566936	-2.16191996	0.11729145	9.14411058	0.69752936	-1.83502103	7.97417842	-1.94594772	12.60164147	5.92749585	3.05108867	9.93460000
6245	62.44000000	8.13903571	2.03610731	6.19406433	8.74527822	-2.91400812	3.89311008	11.03639118	2.23205935	1.77071970	8.13463209	-2.27055032	3.64048209	9.26894118	-1.40282707	-0.01475074	8.99000622	0.44028965	-1.90323480	8.58522841	-1.63386049	12.73725409	6.08126830	3.03236778	9.80286016
6246	62.45000000	8.14555826	2.13612217	6.26726653	8.71639886	-2.88221853	3.74873955	11.14863858	2.53560422	1.83114071	7.92418318	-2.38011729	3.32876461	9.50600398	-1.24926485	-0.27809781	9.00085238	-0.06317404	-1.97047743	8.91482322	-1.37412365	12.78643022	5.97407921	3.07287909	9.92219987
6247	62.46000000	8.25242704	2.18524488	6.28174692	8.67081792	-2.88393441	3.54659176	11.25064517	2.94614421	1.77156250	7.66582691	-2.32490840	3.02535854	9.54944462	-1.73212884	-0.50769350	8.98191783	-0.50237504	-1.86298212	8.91159942	-1.26145124	12.59022409	5.78854518	3.20409714	10.09105200
6248	62.47000000	8.30492076	2.10650590	6.22545585	8.64887204	-2.83265872	3.37500710	11.24831082	3.57546878	1.79613791	7.41955212	-2.27782120	2.78610610	9.28805476	-2.26743109	-0.49612924	9.01200521	-0.86928832	-1.59903040	8.63795163	-1.21508928	12.21100608	6.02124041	3.15524986	9.84273906
6249	62.48000000	8.23559099	2.05423332	6.23135505	8.59576178	-2.77358482	3.21929665	11.05158891	4.07099666	1.95076459	7.24966897	-2.18610644	2.64834723	9.14158005	-2.52154267	-0.57871842	9.17186083	-1.18446751	-1.48021805	8.22134871	-1.04572883	11.70190419	6.36389936	2.93133847	9.74836901
6250	62.49000000	8.10507318	2.06860856	6.17149782	8.44225991	-2.73277030	3.06468707	10.55507388	4.19788464	2.02384302	7.07407763	-2.08739048	2.66271136	9.33400057	-2.83772355	-0.58912770	9.20749231	-1.37799732	-1.52897882	7.90381107	-0.94444860	11.34657429	6.27523417	2.92931868	9.73939046
6251	62.50000000	7.98327625	2.02788731	6.07505661	8.30635972	-2.67297171	2.88109876	9.86734688	3.93864624	2.31889016	6.92949866	-2.14787209	2.79518633	9.31268084	-3.31826066	-0.42030322	9.17402262	-1.25623391	-1.61520812	8.68646807	-1.22057988	11.33331617	6.09935060	3.04650747	9.78622830
6252	62.51000000	7.89160407	2.01016968	6.01645221	8.17315866	-2.61469913	2.75751993	9.07492037	3.34405262	2.53108042	6.75278724	-2.49718022	3.05757402	9.05238151	-3.45750902	0.01139483	9.08540978	-1.03072317	-1.61179912	10.79556973	-1.62517122	11.33152898	6.18362346	2.94352767	9.74616866
6253	62.52000000	7.80359171	1.96757428	6.02347192	8.03709208	-2.50655557	2.74145977	8.51748142	2.37163977	2.47359094	6.67351281	-3.12039646	3.45752719	9.06683534	-2.98011518	0.31297634	9.06814507	-0.81659979	-1.51508473	11.88416966	-2.44611688	10.50050754	6.30607051	2.75159538	9.70583533
6254	62.53000000	7.76109110	1.91901851	5.99644371	7.94557018	-2.43210202	2.65257962	8.11657811	1.39269715	2.71793127	6.82543549	-3.79955145	3.80937071	9.48586643	-2.62747232	0.51514523	9.20987976	-0.64606156	-1.45225336	11.16974650	-2.93950453	9.31001354	6.40485524	2.38372443	9.72351929
6255	62.54000000	7.79857710	1.89478429	6.10046162	7.85448130	-2.37330191	2.64344489	7.93383577	0.73249657	2.45969627	7.14558754	-4.71613548	3.86012675	9.62404928	-2.73549335	1.07382762	9.28853838	-0.56469417	-1.25601706	9.42862200	-2.41028027	8.10660445	6.11331389	2.29259025	10.04053348
6256	62.55000000	7.88210685	1.97140876	6.22461781	7.85499293	-2.30899561	2.68746302	7.94105906	0.47794040	1.80171445	7.53182698	-5.59015834	3.81057366	9.41491854	-2.98104304	1.36303930	9.55810407	-0.37302840	-1.01523766	7.94467239	-1.71297363	6.83613861	6.05558742	2.15027738	10.10959842
6257	62.56000000	7.91053647	2.00109164	6.38192330	7.93374954	-2.23859483	2.69745767	7.65416901	0.22818437	2.27750788	7.99305120	-6.22434078	3.91723072	9.28816055	-2.76930221	1.61030073	9.84174692	-0.27348217	-0.85178190	7.53811970	-1.95674704	5.70093530	6.23337927	2.06593059	9.98396858
6258	62.57000000	7.96463946	2.08456678	6.51524560	8.20187697	-2.27925599	2.64582648	7.14232229	-0.29876542	3.10667170	8.28935741	-6.46515803	3.94606686	9.21550260	-2.39728293	1.59484436	9.62004215	-0.25124304	-0.64805635	7.88635782	-2.09647236	5.04388789	6.40489693	1.84624856	9.94622328
6259	62.58000000	8.03451974	2.22080394	6.73421153	8.50456960	-2.25838776	2.62646763	6.99834157	-0.67808029	2.88391247	8.39609939	-6.52225280	4.08550556	9.10124546	-2.01371698	1.75358097	9.53370962	-0.05933123	-0.43749941	8.37992550	-1.16488517	4.66568927	6.33424353	1.95483098	9.92194102
6260	62.59000000	8.18047462	2.32280743	6.83111856	8.71100997	-2.33318940	2.48031793	7.03414716	-0.45907202	2.24634251	8.39564160	-6.39000983	4.27957374	9.08864892	-1.84365570	1.88250916	9.38126889	-0.02296024	-0.42369553	8.51785890	0.00323083	4.06328546	6.13074589	1.91604000	10.15676319
6261	62.60000000	8.30056368	2.37069676	6.81058834	9.02707639	-2.27863541	2.54044399	7.05703402	-0.10971468	2.01091870	8.44225810	-6.00550422	4.31983095	9.28337724	-1.84606829	1.37240963	9.31252887	-0.04867356	-0.49370303	8.33261733	0.62124748	3.17696738	6.24084817	1.99274064	10.04344071
6262	62.61000000	8.30798419	2.39553877	6.85246427	9.19501190	-2.36308987	2.50411127	7.17996864	-0.17252211	1.89414292	8.39041522	-5.67089185	4.31561065	9.53604706	-1.98788548	0.95621052	9.37274155	-0.02753126	-0.62716145	8.31213990	-0.15347127	1.82237725	6.51097025	1.95980706	9.91575131
6263	62.62000000	8.18427066	2.36898287	6.87082494	9.23411412	-2.38926960	2.39688626	7.27949944	-0.63593159	2.10051630	8.30930832	-5.52913702	4.41969497	9.59850102	-2.32059455	0.83001554	9.56203484	0.05859366	-0.84104479	8.92372626	-0.79618977	0.78146800	6.57221479	1.90215053	9.91759491
